<svg width="12" height="8" viewBox="0 0 12 8" fill="none" xmlns="http://www.w3.org/2000/svg">
<path d="M1.16131 5.99889L5.65502 1.14909C5.70566 1.09454 5.75908 1.05605 5.81528 1.03364C5.87147 1.01121 5.93218 1 5.9974 1C6.06261 1 6.12332 1.01121 6.17951 1.03364C6.23571 1.05605 6.28913 1.09454 6.33977 1.14911L10.847 6.00449C10.949 6.11436 11 6.24889 11 6.40808C11 6.56726 10.9445 6.70665 10.8335 6.82623C10.7259 6.94208 10.5993 7 10.4536 7C10.3079 7 10.1813 6.94208 10.0738 6.82623L5.9974 2.43496L1.91579 6.83183C1.81381 6.9417 1.69032 6.99663 1.54531 6.99663C1.40031 6.99663 1.27231 6.93684 1.16131 6.81726C1.05377 6.70142 1 6.56503 1 6.40808C1 6.25112 1.05377 6.11473 1.16131 5.99889Z" fill="#CE3D35" stroke="#CE3D35" stroke-width="0.5"/>
</svg>
