<svg width="12" height="8" viewBox="0 0 12 8" fill="none" xmlns="http://www.w3.org/2000/svg">
<path d="M10.8387 2.00111L6.34498 6.85091C6.29434 6.90546 6.24092 6.94395 6.18472 6.96636C6.12853 6.98879 6.06782 7 6.0026 7C5.93739 7 5.87668 6.98879 5.82049 6.96636C5.76429 6.94395 5.71087 6.90546 5.66023 6.85089L1.15299 1.99551C1.051 1.88564 1 1.75111 1 1.59192C1 1.43274 1.0555 1.29335 1.16651 1.17377C1.27405 1.05792 1.40067 1 1.54636 1C1.69205 1 1.81867 1.05792 1.92621 1.17377L6.0026 5.56504L10.0842 1.16817C10.1862 1.0583 10.3097 1.00337 10.4547 1.00337C10.5997 1.00337 10.7277 1.06316 10.8387 1.18274C10.9462 1.29858 11 1.43497 11 1.59192C11 1.74888 10.9462 1.88527 10.8387 2.00111Z" fill="#CE3D35" stroke="#CE3D35" stroke-width="0.5"/>
</svg>
