<svg width="8" height="14" viewBox="0 0 8 14" fill="none" xmlns="http://www.w3.org/2000/svg">
<path d="M6.66519 13.7742L0.19879 7.48298C0.126049 7.41208 0.0747357 7.33728 0.0448492 7.25861C0.0149497 7.17994 0 7.09495 0 7.00365C0 6.91234 0.0149497 6.82735 0.0448492 6.74869C0.0747357 6.67001 0.126056 6.59522 0.198809 6.52432L6.67266 0.21418C6.81915 0.0713934 6.99852 0 7.21077 0C7.42302 0 7.60887 0.0777069 7.76831 0.233121C7.92277 0.383673 8 0.560932 8 0.764897C8 0.968875 7.92277 1.14614 7.76831 1.29669L1.91328 7.00365L7.77577 12.7179C7.92227 12.8607 7.99551 13.0336 7.99551 13.2366C7.99551 13.4396 7.91579 13.6188 7.75634 13.7742C7.6019 13.9247 7.42004 14 7.21077 14C7.0015 14 6.81964 13.9247 6.66519 13.7742Z" fill="#1C1B1F"/>
</svg>
