<svg width="8" height="14" viewBox="0 0 8 14" fill="none" xmlns="http://www.w3.org/2000/svg">
<path d="M1.33481 0.225828L7.80121 6.51702C7.87395 6.58792 7.92526 6.66272 7.95515 6.74139C7.98505 6.82006 8 6.90505 8 6.99635C8 7.08766 7.98505 7.17265 7.95515 7.25131C7.92526 7.32999 7.87394 7.40478 7.80119 7.47568L1.32734 13.7858C1.18085 13.9286 1.00148 14 0.789232 14C0.576982 14 0.391134 13.9223 0.231688 13.7669C0.077229 13.6163 0 13.4391 0 13.2351C0 13.0311 0.077229 12.8539 0.231688 12.7033L6.08672 6.99635L0.224226 1.28211C0.0777345 1.13933 0.00448799 0.966442 0.00448799 0.763437C0.00448799 0.560431 0.0842113 0.381229 0.243658 0.225828C0.398104 0.0752754 0.579962 0 0.789232 0C0.998502 0 1.18036 0.0752754 1.33481 0.225828Z" fill="#1C1B1F"/>
</svg>
