<svg width="14" height="14" viewBox="0 0 14 14" fill="none" xmlns="http://www.w3.org/2000/svg">
<path fill-rule="evenodd" clip-rule="evenodd" d="M0.333374 6.99967C0.333374 3.32034 3.32004 0.333008 7.00004 0.333008C10.6867 0.333008 13.6667 3.32034 13.6667 6.99967C13.6667 10.6803 10.6867 13.6663 7.00004 13.6663C3.32004 13.6663 0.333374 10.6803 0.333374 6.99967ZM6.41337 4.47301C6.41337 4.15367 6.68004 3.88634 7.00004 3.88634C7.32004 3.88634 7.58004 4.15367 7.58004 4.47301V7.41967C7.58004 7.74034 7.32004 7.99967 7.00004 7.99967C6.68004 7.99967 6.41337 7.74034 6.41337 7.41967V4.47301ZM7.00671 10.1203C6.68004 10.1203 6.42004 9.85367 6.42004 9.53367C6.42004 9.21367 6.68004 8.95367 7.00004 8.95367C7.32671 8.95367 7.58671 9.21367 7.58671 9.53367C7.58671 9.85367 7.32671 10.1203 7.00671 10.1203Z" fill="#CE3D35"/>
</svg>
